<mxfile host="app.diagrams.net" modified="2023-05-16T09:24:59.152Z" agent="5.0 (X11; Linux x86_64) AppleWebKit/537.36 (KHTML, like Gecko) Chrome/112.0.0.0 Safari/537.36" etag="LzUkb6x7dqywKQULsVrW" version="16.0.0" type="github">
  <diagram id="d_YUVAbH0xJJSEouSpRH" name="Page-1">
    <mxGraphModel dx="1054" dy="1129" grid="1" gridSize="10" guides="1" tooltips="1" connect="1" arrows="1" fold="1" page="1" pageScale="1" pageWidth="827" pageHeight="1169" math="0" shadow="0">
      <root>
        <mxCell id="0" />
        <mxCell id="1" parent="0" />
        <mxCell id="6tfxcnYcnnUwI2l_sp5J-2" value="bar" style="ellipse;whiteSpace=wrap;html=1;aspect=fixed;" vertex="1" parent="1">
          <mxGeometry x="20" y="530" width="30" height="30" as="geometry" />
        </mxCell>
        <mxCell id="6tfxcnYcnnUwI2l_sp5J-4" value="foo" style="ellipse;whiteSpace=wrap;html=1;aspect=fixed;" vertex="1" parent="1">
          <mxGeometry x="60" y="530" width="30" height="30" as="geometry" />
        </mxCell>
        <mxCell id="6tfxcnYcnnUwI2l_sp5J-7" value="baz" style="ellipse;whiteSpace=wrap;html=1;aspect=fixed;" vertex="1" parent="1">
          <mxGeometry x="100" y="530" width="30" height="30" as="geometry" />
        </mxCell>
        <mxCell id="6tfxcnYcnnUwI2l_sp5J-9" value="(bar)&lt;br&gt;=&amp;gt;void" style="ellipse;whiteSpace=wrap;html=1;" vertex="1" parent="1">
          <mxGeometry x="270" y="530" width="80" height="30" as="geometry" />
        </mxCell>
        <mxCell id="6tfxcnYcnnUwI2l_sp5J-10" value="(foo)&lt;br&gt;=&amp;gt;void" style="ellipse;whiteSpace=wrap;html=1;" vertex="1" parent="1">
          <mxGeometry x="180" y="530" width="80" height="30" as="geometry" />
        </mxCell>
        <mxCell id="6tfxcnYcnnUwI2l_sp5J-12" value="(baz)&lt;br&gt;=&amp;gt;void" style="ellipse;whiteSpace=wrap;html=1;" vertex="1" parent="1">
          <mxGeometry x="360" y="530" width="80" height="30" as="geometry" />
        </mxCell>
        <mxCell id="6tfxcnYcnnUwI2l_sp5J-13" value="((foo)=&amp;gt;void)&lt;br&gt;=&amp;gt;void" style="ellipse;whiteSpace=wrap;html=1;" vertex="1" parent="1">
          <mxGeometry x="487" y="530" width="100" height="30" as="geometry" />
        </mxCell>
        <mxCell id="6tfxcnYcnnUwI2l_sp5J-14" value="((bar)=&amp;gt;void)&lt;br&gt;=&amp;gt;void" style="ellipse;whiteSpace=wrap;html=1;" vertex="1" parent="1">
          <mxGeometry x="597" y="530" width="100" height="30" as="geometry" />
        </mxCell>
        <mxCell id="6tfxcnYcnnUwI2l_sp5J-15" value="((baz)=&amp;gt;void)&lt;br&gt;=&amp;gt;void" style="ellipse;whiteSpace=wrap;html=1;" vertex="1" parent="1">
          <mxGeometry x="707" y="530" width="100" height="30" as="geometry" />
        </mxCell>
        <mxCell id="6tfxcnYcnnUwI2l_sp5J-16" value="((foo)=&amp;gt;void &amp;amp;&lt;br&gt;(bar)=&amp;gt;void &amp;amp;&lt;br&gt;(baz)=&amp;gt;void)&lt;br&gt;=&amp;gt;void" style="ellipse;whiteSpace=wrap;html=1;" vertex="1" parent="1">
          <mxGeometry x="572" y="360" width="150" height="70" as="geometry" />
        </mxCell>
        <mxCell id="6tfxcnYcnnUwI2l_sp5J-17" value="(foo)=&amp;gt;void &amp;amp;&lt;br&gt;(bar)=&amp;gt;void &amp;amp;&lt;br&gt;(baz)=&amp;gt;void" style="ellipse;whiteSpace=wrap;html=1;" vertex="1" parent="1">
          <mxGeometry x="250" y="360" width="120" height="50" as="geometry" />
        </mxCell>
        <mxCell id="6tfxcnYcnnUwI2l_sp5J-21" value="" style="endArrow=classic;html=1;rounded=0;entryX=0.5;entryY=0;entryDx=0;entryDy=0;exitX=0.5;exitY=1;exitDx=0;exitDy=0;" edge="1" parent="1" source="6tfxcnYcnnUwI2l_sp5J-17" target="6tfxcnYcnnUwI2l_sp5J-9">
          <mxGeometry width="50" height="50" relative="1" as="geometry">
            <mxPoint x="390" y="560" as="sourcePoint" />
            <mxPoint x="440" y="510" as="targetPoint" />
          </mxGeometry>
        </mxCell>
        <mxCell id="6tfxcnYcnnUwI2l_sp5J-22" value="" style="endArrow=classic;html=1;rounded=0;entryX=0.5;entryY=0;entryDx=0;entryDy=0;exitX=0.5;exitY=1;exitDx=0;exitDy=0;" edge="1" parent="1" source="6tfxcnYcnnUwI2l_sp5J-17" target="6tfxcnYcnnUwI2l_sp5J-10">
          <mxGeometry width="50" height="50" relative="1" as="geometry">
            <mxPoint x="390" y="560" as="sourcePoint" />
            <mxPoint x="440" y="510" as="targetPoint" />
          </mxGeometry>
        </mxCell>
        <mxCell id="6tfxcnYcnnUwI2l_sp5J-23" value="" style="endArrow=classic;html=1;rounded=0;entryX=0.5;entryY=0;entryDx=0;entryDy=0;" edge="1" parent="1" target="6tfxcnYcnnUwI2l_sp5J-12">
          <mxGeometry width="50" height="50" relative="1" as="geometry">
            <mxPoint x="310" y="410" as="sourcePoint" />
            <mxPoint x="440" y="510" as="targetPoint" />
          </mxGeometry>
        </mxCell>
        <mxCell id="6tfxcnYcnnUwI2l_sp5J-24" value="" style="endArrow=classic;html=1;rounded=0;entryX=0.5;entryY=1;entryDx=0;entryDy=0;exitX=0.5;exitY=0;exitDx=0;exitDy=0;" edge="1" parent="1" source="6tfxcnYcnnUwI2l_sp5J-13" target="6tfxcnYcnnUwI2l_sp5J-16">
          <mxGeometry width="50" height="50" relative="1" as="geometry">
            <mxPoint x="390" y="560" as="sourcePoint" />
            <mxPoint x="440" y="510" as="targetPoint" />
          </mxGeometry>
        </mxCell>
        <mxCell id="6tfxcnYcnnUwI2l_sp5J-25" value="" style="endArrow=classic;html=1;rounded=0;entryX=0.5;entryY=1;entryDx=0;entryDy=0;exitX=0.5;exitY=0;exitDx=0;exitDy=0;" edge="1" parent="1" source="6tfxcnYcnnUwI2l_sp5J-14" target="6tfxcnYcnnUwI2l_sp5J-16">
          <mxGeometry width="50" height="50" relative="1" as="geometry">
            <mxPoint x="390" y="560" as="sourcePoint" />
            <mxPoint x="440" y="510" as="targetPoint" />
          </mxGeometry>
        </mxCell>
        <mxCell id="6tfxcnYcnnUwI2l_sp5J-26" value="" style="endArrow=classic;html=1;rounded=0;entryX=0.5;entryY=1;entryDx=0;entryDy=0;exitX=0.5;exitY=0;exitDx=0;exitDy=0;" edge="1" parent="1" source="6tfxcnYcnnUwI2l_sp5J-15" target="6tfxcnYcnnUwI2l_sp5J-16">
          <mxGeometry width="50" height="50" relative="1" as="geometry">
            <mxPoint x="390" y="560" as="sourcePoint" />
            <mxPoint x="440" y="510" as="targetPoint" />
          </mxGeometry>
        </mxCell>
        <mxCell id="6tfxcnYcnnUwI2l_sp5J-28" value="" style="shape=flexArrow;endArrow=classic;html=1;rounded=0;" edge="1" parent="1">
          <mxGeometry width="50" height="50" relative="1" as="geometry">
            <mxPoint x="120" y="590" as="sourcePoint" />
            <mxPoint x="200" y="590" as="targetPoint" />
          </mxGeometry>
        </mxCell>
        <mxCell id="6tfxcnYcnnUwI2l_sp5J-29" value="1. &lt;b&gt;CoFunc&lt;/b&gt;" style="text;html=1;strokeColor=none;fillColor=none;align=center;verticalAlign=middle;whiteSpace=wrap;rounded=0;" vertex="1" parent="1">
          <mxGeometry x="120" y="600" width="70" height="30" as="geometry" />
        </mxCell>
        <mxCell id="6tfxcnYcnnUwI2l_sp5J-30" value="" style="shape=flexArrow;endArrow=classic;html=1;rounded=0;" edge="1" parent="1">
          <mxGeometry width="50" height="50" relative="1" as="geometry">
            <mxPoint x="430" y="590" as="sourcePoint" />
            <mxPoint x="510" y="590" as="targetPoint" />
          </mxGeometry>
        </mxCell>
        <mxCell id="6tfxcnYcnnUwI2l_sp5J-31" value="2. &lt;b&gt;CoFunc&lt;/b&gt;" style="text;html=1;strokeColor=none;fillColor=none;align=center;verticalAlign=middle;whiteSpace=wrap;rounded=0;" vertex="1" parent="1">
          <mxGeometry x="430" y="600" width="70" height="30" as="geometry" />
        </mxCell>
        <mxCell id="6tfxcnYcnnUwI2l_sp5J-33" value="" style="shape=flexArrow;endArrow=classic;html=1;rounded=0;" edge="1" parent="1">
          <mxGeometry width="50" height="50" relative="1" as="geometry">
            <mxPoint x="520" y="500" as="sourcePoint" />
            <mxPoint x="590" y="440" as="targetPoint" />
          </mxGeometry>
        </mxCell>
        <mxCell id="6tfxcnYcnnUwI2l_sp5J-34" value="3. &lt;b&gt;Greatest&lt;/b&gt;" style="text;html=1;strokeColor=none;fillColor=none;align=center;verticalAlign=middle;whiteSpace=wrap;rounded=0;" vertex="1" parent="1">
          <mxGeometry x="480" y="450" width="70" height="30" as="geometry" />
        </mxCell>
        <mxCell id="6tfxcnYcnnUwI2l_sp5J-36" value="" style="endArrow=classic;html=1;rounded=0;dashed=1;" edge="1" parent="1">
          <mxGeometry width="50" height="50" relative="1" as="geometry">
            <mxPoint x="560" y="380" as="sourcePoint" />
            <mxPoint x="380" y="380" as="targetPoint" />
          </mxGeometry>
        </mxCell>
        <mxCell id="6tfxcnYcnnUwI2l_sp5J-37" value="3.&lt;br&gt;(foo)=&amp;gt;void &amp;amp;&lt;br&gt;(bar)=&amp;gt;void &amp;amp;&lt;br&gt;(baz)=&amp;gt;void" style="text;html=1;strokeColor=none;fillColor=none;align=left;verticalAlign=middle;whiteSpace=wrap;rounded=0;" vertex="1" parent="1">
          <mxGeometry x="414" y="390" width="100" height="60" as="geometry" />
        </mxCell>
        <mxCell id="6tfxcnYcnnUwI2l_sp5J-38" value="" style="shape=flexArrow;endArrow=classic;html=1;rounded=0;" edge="1" parent="1">
          <mxGeometry width="50" height="50" relative="1" as="geometry">
            <mxPoint x="280" y="420" as="sourcePoint" />
            <mxPoint x="200" y="520" as="targetPoint" />
          </mxGeometry>
        </mxCell>
        <mxCell id="6tfxcnYcnnUwI2l_sp5J-39" value="4. &lt;b&gt;Greatest&lt;/b&gt;" style="text;html=1;strokeColor=none;fillColor=none;align=center;verticalAlign=middle;whiteSpace=wrap;rounded=0;" vertex="1" parent="1">
          <mxGeometry x="150" y="440" width="80" height="30" as="geometry" />
        </mxCell>
        <mxCell id="6tfxcnYcnnUwI2l_sp5J-43" value="" style="endArrow=classic;html=1;rounded=0;dashed=1;startArrow=none;" edge="1" parent="1">
          <mxGeometry width="50" height="50" relative="1" as="geometry">
            <mxPoint x="190" y="510" as="sourcePoint" />
            <mxPoint x="120" y="510" as="targetPoint" />
          </mxGeometry>
        </mxCell>
        <mxCell id="6tfxcnYcnnUwI2l_sp5J-42" value="4.&lt;br&gt;baz" style="text;html=1;strokeColor=none;fillColor=none;align=left;verticalAlign=middle;whiteSpace=wrap;rounded=0;" vertex="1" parent="1">
          <mxGeometry x="140" y="480" width="40" height="30" as="geometry" />
        </mxCell>
      </root>
    </mxGraphModel>
  </diagram>
</mxfile>
